<svg xmlns="http://www.w3.org/2000/svg" width="1200" height="630" viewBox="0 0 1200 630" role="img" aria-labelledby="title desc">
  <title id="title">Canva Vault</title>
  <desc id="desc">Canva keyboard shortcuts cheat sheet for Mac and Windows.</desc>
  <defs>
    <linearGradient id="bg" x1="0" y1="0" x2="1" y2="1">
      <stop offset="0%" stop-color="#171717" />
      <stop offset="100%" stop-color="#0f0f0f" />
    </linearGradient>
    <linearGradient id="accent" x1="0" y1="0" x2="1" y2="1">
      <stop offset="0%" stop-color="#c4b5fd" />
      <stop offset="100%" stop-color="#a78bfa" />
    </linearGradient>
    <filter id="shadow" x="-20%" y="-20%" width="140%" height="140%">
      <feDropShadow dx="0" dy="18" stdDeviation="24" flood-color="#000000" flood-opacity="0.35" />
    </filter>
  </defs>

  <rect width="1200" height="630" rx="36" fill="url(#bg)" />
  <circle cx="1050" cy="110" r="180" fill="#a78bfa" opacity="0.12" />
  <circle cx="180" cy="540" r="220" fill="#a78bfa" opacity="0.08" />

  <g transform="translate(72 72)" filter="url(#shadow)">
    <rect width="1056" height="486" rx="28" fill="#111111" stroke="#2a2a2a" stroke-width="2" />
    <rect x="28" y="28" width="1000" height="78" rx="22" fill="#161616" stroke="#2a2a2a" stroke-width="2" />
    <text x="56" y="76" fill="#a78bfa" font-size="40" font-weight="800" font-family="Inter, Arial, sans-serif">Canva Vault</text>
    <rect x="336" y="40" width="344" height="54" rx="27" fill="#1c1c1c" stroke="#2a2a2a" stroke-width="2" />
    <text x="366" y="75" fill="#acabaa" font-size="24" font-weight="500" font-family="Inter, Arial, sans-serif">Search shortcuts...</text>
    <rect x="708" y="40" width="164" height="54" rx="27" fill="#1c1c1c" stroke="#2a2a2a" stroke-width="2" />
    <rect x="720" y="46" width="66" height="42" rx="18" fill="#a78bfa" />
    <text x="753" y="74" text-anchor="middle" fill="#111111" font-size="24" font-weight="700" font-family="Inter, Arial, sans-serif">Mac</text>
    <text x="823" y="74" fill="#ffffff" font-size="24" font-weight="700" font-family="Inter, Arial, sans-serif">Windows</text>

    <rect x="28" y="134" width="250" height="324" rx="24" fill="#111111" stroke="#2a2a2a" stroke-width="2" />
    <rect x="42" y="148" width="222" height="58" rx="14" fill="rgba(167,139,250,0.14)" />
    <rect x="258" y="148" width="6" height="58" rx="3" fill="#a78bfa" />
    <text x="64" y="185" fill="#a78bfa" font-size="24" font-weight="500" font-family="Inter, Arial, sans-serif">General</text>
    <text x="64" y="240" fill="#acabaa" font-size="22" font-weight="500" font-family="Inter, Arial, sans-serif">Text</text>
    <text x="64" y="292" fill="#acabaa" font-size="22" font-weight="500" font-family="Inter, Arial, sans-serif">Elements</text>
    <text x="64" y="344" fill="#acabaa" font-size="22" font-weight="500" font-family="Inter, Arial, sans-serif">Video</text>
    <text x="64" y="396" fill="#acabaa" font-size="22" font-weight="500" font-family="Inter, Arial, sans-serif">Zoom</text>

    <rect x="298" y="134" width="730" height="324" rx="24" fill="#111111" stroke="#2a2a2a" stroke-width="2" />
    <text x="326" y="188" fill="#ffffff" font-size="44" font-weight="500" font-family="Inter, Arial, sans-serif">Complete Canva shortcut guide</text>
    <line x1="326" y1="210" x2="998" y2="210" stroke="#2a2a2a" stroke-width="2" />

    <g font-family="Inter, Arial, sans-serif" font-size="28" font-weight="500" fill="#ffffff">
      <text x="326" y="280">Undo</text>
      <text x="326" y="350">Redo</text>
      <text x="326" y="420">Save</text>
    </g>

    <g font-family="Inter, Arial, sans-serif" font-size="22" font-weight="500">
      <rect x="886" y="246" width="42" height="42" rx="8" fill="#2a2a2a" stroke="#000000" stroke-width="2" />
      <rect x="936" y="246" width="42" height="42" rx="8" fill="#2a2a2a" stroke="#000000" stroke-width="2" />
      <text x="907" y="273" text-anchor="middle" fill="#acabaa">⌘</text>
      <text x="957" y="273" text-anchor="middle" fill="#acabaa">Z</text>

      <rect x="886" y="316" width="42" height="42" rx="8" fill="#2a2a2a" stroke="#000000" stroke-width="2" />
      <rect x="936" y="316" width="42" height="42" rx="8" fill="#2a2a2a" stroke="#000000" stroke-width="2" />
      <text x="907" y="343" text-anchor="middle" fill="#acabaa">⌘</text>
      <text x="957" y="343" text-anchor="middle" fill="#acabaa">Y</text>

      <rect x="886" y="386" width="42" height="42" rx="8" fill="#2a2a2a" stroke="#000000" stroke-width="2" />
      <rect x="936" y="386" width="42" height="42" rx="8" fill="#2a2a2a" stroke="#000000" stroke-width="2" />
      <text x="907" y="413" text-anchor="middle" fill="#acabaa">⌘</text>
      <text x="957" y="413" text-anchor="middle" fill="#acabaa">S</text>
    </g>
  </g>
</svg>
